<svg fill="none" xmlns="http://www.w3.org/2000/svg" viewBox="0 0 56 56">
  <path d="M25.993 6.548l.257.233.21.183c1.658 1.534 2.758 4.022 2.852 6.27l.014.27c.067 2.708-.898 5.115-2.68 7.135-.649.68-1.35 1.183-2.146 1.674.288.147.577.28.877.4 3.546 1.447 6.378 3.537 8.57 6.711l.151.22c.133.21.23.423.334.65.195.34.195.34.442.394.252.022.495.02.748.012 1.004.013 1.673.139 2.427.841.614.666.795 1.32.79 2.21-.022.524-.106 1.04-.182 1.559l-.054.385-.182 1.253-.125.872L38 39.876l-.337 2.341c-.23 1.605-.462 3.21-.694 4.814l.368-.004c.506.006.77.139 1.163.442.644.712.574 1.284.581 2.215l.01.407c.008 1.23.008 1.23-.482 1.753-.478.421-.729.56-1.36.561l-.387.002h-.427l-.451.001-1.245.002-1.34.002-3.239.005-1.524.001c-1.688.002-3.377.004-5.066.004l-1.314.001h-.33c-1.766.001-3.532.004-5.297.007-1.812.004-3.624.006-5.436.006-1.017 0-2.035.002-3.052.004-.867.003-1.733.004-2.6.003-.442-.001-.884 0-1.327.001-.404.002-.81.002-1.214 0-.216 0-.432.002-.648.004-.706-.005-1.163-.01-1.696-.495l-.253-.225c-.464-.533-.323-1.33-.328-1.997l-.01-.405c-.008-1.224-.008-1.224.482-1.748.547-.494.911-.56 1.64-.547l-.029-.2a4883.365 4883.365 0 01-1.035-7.18 1319.111 1319.111 0 01-.45-3.12 458.092 458.092 0 01-.227-1.567c-.155-1.099-.223-2.023.32-3.026.266-.315.266-.315.546-.547l.267-.24c.541-.382 1.01-.427 1.65-.402.43.01.842.005 1.255-.124.374-.358.561-.756.775-1.223.168-.333.39-.618.62-.91l.138-.177c2.11-2.652 4.71-4.439 7.862-5.65.268-.105.522-.217.777-.352l-.269-.173c-2.275-1.498-3.721-3.533-4.347-6.183-.507-2.48-.104-5.101 1.26-7.248 1.48-2.23 3.588-3.74 6.186-4.368 3.04-.571 6.162.17 8.507 2.207zM14.547 7.875l-.195.148c-1.51 1.172-2.25 3.002-2.615 4.822-.201 2.3.423 4.317 1.825 6.142a8.012 8.012 0 005.36 2.779c2.238.14 4.267-.618 5.974-2.044 1.629-1.52 2.492-3.556 2.598-5.77-.089-1.937-.686-3.574-1.9-5.093l-.246-.341c-1.505-1.574-3.553-2.447-5.715-2.53-1.867.032-3.685.64-5.086 1.887zm-6.479 20.89c-.88.908-.88.908-1.396 1.97h25.812c-.495-.78-.905-1.41-1.53-2.051l-.192-.202c-.19-.198-.382-.395-.575-.591L30 27.694c-2.104-2.174-5.164-3.512-8.124-3.96l-.4-.06c-5.115-.614-9.937 1.366-13.407 5.092zm-5.771 4.266c-.517 1.033.232 3.357.39 4.456a4586.22 4586.22 0 01.391 2.737l.25 1.753a1645.588 1645.588 0 00.548 3.83l.047.34a2360.247 2360.247 0 00.083.574c.022.202.022.202.15.31.165.01.33.014.495.014a381.439 381.439 0 01.69 0 16250.333 16250.333 0 001.436-.001h1.135l1.968-.001 2.846-.001a10149.488 10149.488 0 009.102-.005h1.665c3.836-.001 7.671-.003 11.507-.006a19.787 19.787 0 00.358-1.875l.048-.333.052-.359.169-1.166.117-.814.245-1.703.284-1.964a752.446 752.446 0 00.39-2.7c.055-.375.108-.75.161-1.124l.05-.334c.078-.562.147-1.074-.015-1.628-.24-.29-.44-.421-.816-.477a19.424 19.424 0 00-1.063-.016l-.415-.002c-.379-.002-.758 0-1.137 0-.41.002-.819 0-1.228-.001-.802-.002-1.603-.002-2.404 0h-2.8c-1.765-.002-3.53 0-5.296.002-1.515.002-3.03.002-4.546 0-1.759-.002-3.518-.004-5.277-.002H9.083c-.793-.002-1.585-.002-2.378 0-.405.002-.81.002-1.214 0l-1.315.003-.388-.003c-.84-.001-.84-.001-1.491.496zm-.438 15.86v1.64h35.328v-1.64H1.86z" fill="#fff"/>
  <path d="M46.375 3.937l.397.106c1.764.527 3.34 1.448 4.744 2.629l.23.184c2.335 1.903 3.733 4.978 4.145 7.91.044.557.052 1.109.047 1.667v.223c-.024 3.552-1.46 6.703-3.974 9.192-2.61 2.492-5.985 3.577-9.548 3.495-3.423-.134-6.593-1.724-8.947-4.187-2.36-2.641-3.425-6.051-3.298-9.558.197-3.47 1.874-6.547 4.381-8.896 3.163-2.75 7.754-3.882 11.823-2.765zm-8.422 2.735l-.35.173c-.864.464-1.54 1.078-2.234 1.76-.121.117-.246.23-.372.342-1.782 1.62-2.8 4.338-2.965 6.694-.139 3.013.752 5.883 2.797 8.127.2.211.403.417.608.623l.262.265c2.145 2.056 5.047 2.867 7.958 2.827 1.601-.053 3.05-.51 4.468-1.233l.35-.177c2.574-1.405 4.378-3.825 5.228-6.604l.112-.346c.749-2.77.192-5.806-1.213-8.26-1.565-2.612-4.05-4.429-6.993-5.176-2.646-.607-5.255-.223-7.656.985z" fill="#fff"/>
  <path d="M46.156 7.656l.352.12c2.202.837 4.01 2.577 5.01 4.695 1.081 2.427 1.114 5.046.19 7.523-.917 2.28-2.759 4.094-5.005 5.053-2.472.946-5.005.89-7.458-.069-2.247-1.027-4.04-2.91-4.918-5.223-.9-2.55-.697-5.185.454-7.614.467-.87 1.06-1.596 1.75-2.297l.252-.257c2.449-2.344 6.198-3.021 9.373-1.93zM37.44 11.56a7.838 7.838 0 00-1.784 5.721c.271 1.935 1.216 3.755 2.746 4.988 1.755 1.278 3.745 1.857 5.904 1.541 1.477-.284 2.703-.946 3.819-1.935l.207-.176c1.354-1.235 2.073-3.123 2.195-4.92.023-1.978-.62-3.919-1.988-5.377-1.392-1.414-3.172-2.33-5.177-2.366-2.356.005-4.279.788-5.922 2.524z" fill="#fff"/>
  <path d="M43.531 10.61c.274.15.274.15.438.437.034.368.025.726 0 1.094l.273.013c.633.159 1.117.54 1.477 1.08.059.74.059.74-.117 1.142-.319.258-.572.273-.977.28a2.513 2.513 0 01-.738-.512c-.394-.23-.787-.202-1.23-.144-.291.093-.291.093-.438.328-.073.383-.073.383 0 .766.32.318.562.365 1.005.376.896.065 1.483.314 2.105.97.513.626.658 1.218.635 2.016-.082.759-.432 1.391-1.01 1.888a8.171 8.171 0 01-.473.205c-.227.089-.227.089-.403.232-.068.254-.075.483-.082.745-.027.24-.027.24-.26.575-.398.268-.608.289-1.08.212a1.728 1.728 0 01-.547-.657c-.014-.292-.004-.582 0-.875l-.335-.068a2.287 2.287 0 01-1.328-1.022c-.137-.353-.063-.627.023-.988.242-.316.452-.424.847-.478.492.056.65.257 1.012.588.398.132.676.152 1.094.109.342-.214.342-.214.547-.547.02-.348.02-.348-.11-.656-.38-.254-.608-.267-1.06-.315-.89-.12-1.477-.271-2.043-.99-.544-.765-.608-1.494-.506-2.414.239-.812.69-1.335 1.422-1.75l.328-.11.032-.25.05-.33.046-.327c.21-.682.78-.732 1.403-.623zM21.192 36.496c.962.567 1.588 1.366 1.886 2.441.09.958.076 1.796-.437 2.626l-.117.206c-.468.75-1.228 1.209-2.07 1.434-.969.086-1.893.105-2.735-.437l-.234-.145c-.756-.512-1.166-1.168-1.407-2.043-.111-1.246-.012-2.204.793-3.2 1.117-1.2 2.807-1.59 4.32-.882zm-3.077 2.291c-.24.5-.265.917-.177 1.463.254.53.564.839 1.093 1.094.547.087.962.063 1.463-.178.49-.442.749-.79.786-1.456-.025-.57-.197-.928-.608-1.32-.93-.654-1.832-.403-2.557.397z" fill="#fff"/>
</svg>
