<svg fill="none" xmlns="http://www.w3.org/2000/svg" viewBox="0 0 251 41">
  <path d="M66.259 33.905h1.909c1.307 0 2.212.447 2.212 1.586 0 .64-.338 1.21-.94 1.407v.04c.768.152 1.308.663 1.308 1.55 0 1.272-1 1.893-2.434 1.893h-2.055v-6.476zm1.77 2.755c1.093 0 1.546-.407 1.546-1.063 0-.756-.515-1.038-1.51-1.038h-.99v2.102h.953v-.001zm.167 3.067c1.1 0 1.747-.399 1.747-1.272 0-.799-.623-1.163-1.747-1.163h-1.12v2.435h1.12zm3.797-2.021v-3.801h.819v3.824c0 1.556.652 2.045 1.492 2.045s1.525-.49 1.525-2.045v-3.824h.785v3.801c0 2.079-.996 2.793-2.31 2.793-1.313 0-2.311-.714-2.311-2.793zm6.347-3.801h.819v6.475h-.82v-6.475zm2.577 0h.82v5.778h2.806v.697h-3.625v-6.475zm4.763 0h1.61c1.976 0 3.037 1.157 3.037 3.215s-1.06 3.261-3.002 3.261h-1.644v-6.475l-.001-.001zm1.547 5.8c1.503 0 2.253-.949 2.253-2.585 0-1.637-.75-2.539-2.253-2.539h-.73v5.125h.73v-.001zm4.479-5.8h.819v6.475h-.82v-6.475zm2.576 0h.845l2.327 4.071.695 1.34h.04c-.042-.653-.105-1.383-.105-2.06v-3.351h.777v6.475h-.845l-2.327-4.075-.694-1.337h-.04c.04.655.104 1.347.104 2.023v3.39h-.777v-6.476zm5.967 3.243c0-2.088 1.248-3.362 2.952-3.362.891 0 1.478.408 1.855.799l-.448.536c-.326-.338-.739-.61-1.384-.61-1.296 0-2.129 1.002-2.129 2.616 0 1.613.765 2.648 2.137 2.648.461 0 .904-.14 1.159-.38v-1.688h-1.362v-.683h2.108v2.722c-.414.434-1.118.752-1.982.752-1.697 0-2.905-1.248-2.905-3.35h-.001zm9.718-2.546h-1.946v-.697h4.71v.697h-1.946v5.778h-.818v-5.778zm3.304 2.517c0-2.074 1.133-3.334 2.749-3.334 1.615 0 2.748 1.263 2.748 3.334 0 2.07-1.133 3.38-2.748 3.38-1.616 0-2.749-1.305-2.749-3.38zm4.653 0c0-1.614-.755-2.61-1.903-2.61-1.148 0-1.904.996-1.904 2.61 0 1.613.756 2.655 1.904 2.655s1.903-1.042 1.903-2.655zm2.227-3.214h.985l1.233 3.46c.155.441.302.9.457 1.35h.039c.155-.45.29-.907.445-1.35l1.218-3.46h.985v6.475h-.761v-3.565c0-.564.063-1.343.104-1.915h-.04l-.51 1.477-1.211 3.35h-.542l-1.217-3.35-.509-1.477h-.039c.04.573.104 1.35.104 1.915v3.565h-.741v-6.475zm6.751 3.214c0-2.074 1.133-3.334 2.748-3.334 1.615 0 2.748 1.263 2.748 3.334 0 2.07-1.133 3.38-2.748 3.38-1.615 0-2.748-1.305-2.748-3.38zm4.652 0c0-1.614-.756-2.61-1.904-2.61s-1.903.996-1.903 2.61c0 1.613.755 2.655 1.903 2.655 1.148 0 1.904-1.042 1.904-2.655zm2.228-3.214h2.014c1.31 0 2.251.474 2.251 1.822s-.941 1.917-2.251 1.917H134.6v2.736h-.818v-6.475zm1.896 3.07c1.001 0 1.552-.409 1.552-1.248 0-.84-.551-1.154-1.552-1.154H134.6v2.402h1.078zm-.044.442l.641-.426 1.963 3.39h-.928l-1.676-2.964zm3.723-3.512h2.015c1.309 0 2.25.474 2.25 1.822s-.941 1.917-2.25 1.917h-1.196v2.736h-.819v-6.475zm1.896 3.07c1.001 0 1.552-.409 1.552-1.248 0-.84-.551-1.154-1.552-1.154h-1.078v2.402h1.078zm-.043.442l.641-.426 1.962 3.39h-.927l-1.676-2.964zm3.349-.298c0-2.074 1.133-3.334 2.748-3.334 1.615 0 2.748 1.263 2.748 3.334 0 2.07-1.133 3.38-2.748 3.38-1.615 0-2.748-1.305-2.748-3.38zm4.651 0c0-1.614-.755-2.61-1.903-2.61-1.148 0-1.903.996-1.903 2.61 0 1.613.755 2.655 1.903 2.655 1.148 0 1.903-1.042 1.903-2.655zm1.513-3.214h.844l.676 3.526c.124.696.252 1.391.376 2.087h.04c.142-.696.297-1.395.452-2.087l.893-3.526h.742l.892 3.526c.155.684.31 1.388.464 2.087h.039c.125-.7.24-1.398.364-2.087l.676-3.526h.789l-1.331 6.475h-.984l-.973-3.892a57.006 57.006 0 01-.31-1.475h-.039c-.1.499-.212.97-.323 1.475l-.953 3.892h-.97l-1.366-6.475h.002zm8.221 1.845c.491-.326.743-.67.743-1.238l-.116-.653.408.503c-.12.118-.224.17-.378.17-.273 0-.52-.178-.52-.497 0-.34.217-.546.52-.546.389 0 .617.321.617.892 0 .787-.366 1.358-1.046 1.75l-.228-.381zm2.239 3.787l.49-.566c.462.484 1.106.803 1.774.803.844 0 1.345-.423 1.345-1.052 0-.662-.466-.872-1.073-1.139l-.924-.41c-.6-.257-1.302-.715-1.302-1.667 0-.952.856-1.719 2.024-1.719a2.65 2.65 0 011.894.802l-.435.53c-.393-.375-.865-.607-1.46-.607-.721 0-1.199.366-1.199.945 0 .624.561.858 1.065 1.072l.916.4c.744.322 1.324.768 1.324 1.73 0 1.023-.839 1.84-2.192 1.84a3.075 3.075 0 01-2.249-.96l.002-.002zm7.001-5.632h.845l.675 3.526c.124.696.252 1.391.376 2.087h.04c.143-.696.297-1.395.452-2.087l.893-3.526h.742l.892 3.526c.155.684.31 1.388.464 2.087h.039c.125-.7.24-1.398.365-2.087l.675-3.526h.789L174.1 40.38h-.984l-.973-3.892c-.11-.506-.213-.976-.31-1.475h-.039c-.1.499-.212.97-.322 1.475l-.954 3.892h-.97l-1.365-6.475h.001zm8.359 0h3.706v.697h-2.888v2.03h2.436v.696h-2.436v2.354h2.987v.697h-3.805v-6.475zm5.164 0h1.909c1.307 0 2.212.447 2.212 1.586 0 .64-.338 1.21-.94 1.407v.04c.768.152 1.309.663 1.309 1.55 0 1.272-1.001 1.893-2.434 1.893h-2.055v-6.475l-.001-.001zm1.771 2.755c1.094 0 1.546-.407 1.546-1.063 0-.756-.514-1.038-1.51-1.038h-.989v2.102h.952l.001-.001zm.167 3.067c1.1 0 1.748-.399 1.748-1.272 0-.799-.623-1.163-1.748-1.163h-1.119v2.435h1.119z" fill="#fff"/>
  <path d="M89.123 16.258c.482 2.854 3.015 3.25 4.763 3.25 1.658 0 4.192-.487 4.192-2.703 0-4.616-12.816-1.64-12.816-9.746C85.263 2.595 89.424.5 93.315.5c4.493 0 8.624 1.974 8.624 6.983l-4.584-.668c-.574-2.52-2.775-2.611-4.252-2.611-1.477 0-3.256.637-3.256 2.46 0 1.609 1.025 1.973 6.423 3.278 1.598.395 6.392 1.396 6.392 6.316 0 3.978-3.076 6.954-8.956 6.954-4.825 0-9.166-2.369-9.166-7.712l4.584.76v-.002zm21.8-11.233h-6.844V1.047h18.363v4.007h-6.784v17.642h-4.735V5.025zm18.274 13.633h12.152v4.008h-16.735V.925h15.71v4.007h-11.126v4.89h9.83v4.22h-9.83v4.616h-.001zm15.559-17.642h9.709c5.397 0 7.448 3.431 7.448 6.954 0 3.522-2.051 6.954-7.448 6.954h-4.975v7.772h-4.734V1.016zm4.734 10.203h3.679c2.171 0 4.161-.486 4.161-3.25 0-2.762-1.991-3.248-4.161-3.248h-3.679v6.498z" fill="#A8FF00"/>
  <path d="M176.219 22.863c-6.03 0-10.916-4.92-10.916-10.993S170.188.878 176.219.878c4.132 0 7.629 2.307 9.469 5.617-1.839.971-1.99 1.063-4.041 2.065a6.265 6.265 0 00-5.428-3.128c-3.527 0-6.392 2.916-6.392 6.437 0 3.522 2.865 6.437 6.392 6.437 2.413 0 4.523-1.305 5.609-3.37 2.05 1.063 2.11 1.185 4.041 2.065-1.839 3.492-5.398 5.86-9.65 5.86v.002zm22.163.213c-6.151 0-11.126-5.01-11.126-11.205 0-6.194 4.975-11.234 11.126-11.234 6.152 0 11.157 5.01 11.157 11.234 0 6.225-5.036 11.205-11.157 11.205zm-6.574-11.205c0 3.614 2.984 6.62 6.573 6.62 3.589 0 6.513-3.006 6.513-6.62 0-3.613-2.924-6.65-6.513-6.65s-6.573 3.037-6.573 6.65zm20.474-10.748h9.288c5.579 0 9.769 3.552 9.769 10.719 0 6.285-3.196 10.961-9.769 10.961h-9.288V1.123zm4.734 17.672h4.222c2.744 0 5.368-1.7 5.368-6.499 0-4.372-1.538-7.165-6.211-7.165h-3.378v13.664h-.001zm21.832-.031H251v4.007h-16.735V1.031h15.71V5.04h-11.126v4.89h9.83v4.22h-9.83v4.616l-.001-.001zM4.131 7.757v15H0V.986h5.428l9.619 13.541V.986h4.01v21.772h-4.01l-10.917-15 .001-.001zm22.675 10.931l11.144.023v4.008l-15.727-.024V.955h15.71v4.008H26.806v4.89h9.831v4.22h-9.83v4.616-.002zm44.29-13.634H64.25V1.076h18.364v4.008H75.83v17.64h-4.734V5.055z" fill="#fff"/>
  <path d="M44.151 22.726h-4.05l7.103-10.824-7.4-10.857h4.051l7.196 10.879-6.9 10.802z" fill="#A8FF00"/>
  <path d="M49.775 22.726h-4.052l7.104-10.824-7.4-10.857h4.051l7.197 10.879-6.9 10.802z" fill="#A8FF00"/>
  <path d="M56.045 8.65l5.183-7.605h-4.051l-3.081 4.658 1.949 2.947zm.009 6.65l-1.961 3.07 2.786 4.356h4.052L56.053 15.3z" fill="#fff"/>
</svg>
