<svg fill="none" xmlns="http://www.w3.org/2000/svg" viewBox="0 0 56 56">
  <g clip-path="url(#keYSYfRB9M__a)" fill="#fff">
    <path d="M27.542.943c.58.455 1.019.974 1.442 1.573l.2.28c.457.664.457.664.457.923a18.52 18.52 0 002.167-.602c.837-.272 1.654-.524 2.536-.601l.238-.023c.747-.038 1.384.148 1.95.631.345.594.394 1.096.274 1.77-.293 1.026-.892 1.885-1.478 2.762l-.175.264c-.475.713-.475.713-.707 1.055l-.16.238-.142.21a6.07 6.07 0 00-.347.64l.321.013c.657.099 1.18.47 1.613.96.47.713.466 1.48.363 2.308-.191.708-.64 1.095-1.203 1.531l-.22.219.4.433.354.384c.297.322.595.643.897.962.72.764 1.383 1.555 2.02 2.39.165.214.332.427.5.639 2.506 3.193 4.508 6.752 5.455 10.723l.058.236c.562 2.35.45 4.99-.167 7.31l.273.08c.454.166.85.385 1.265.632l.247.147c2.394 1.447 5.502 4.041 6.418 6.798-.016.648-.245 1.073-.588 1.6l-.147.23c-.495.758-1.07 1.433-1.672 2.108l-.215.255c-2.5 2.966-6.373 4.67-10.066 5.541l-.25.06c-2.796.638-6.17.506-8.937-.169l-.294-.07c-3.337-.807-7.588-2.674-9.572-5.65-.453-.437-.848-.38-1.455-.37a91.336 91.336 0 01-.682-.014l-.348-.008c-4.212-.16-7.851-2.104-10.693-5.14-2.753-3.16-4.106-6.994-3.836-11.18.37-4.632 2.664-9.1 5.506-12.699.154-.196.306-.393.458-.59a48.458 48.458 0 013.519-4.058l.18-.188c.176-.19.176-.19.373-.502l-.294-.177c-.66-.446-1.045-1.027-1.237-1.791a2.911 2.911 0 01.622-2.167c.417-.447.916-.775 1.537-.797l.247.01a252.012 252.012 0 00-.612-.988 46.089 46.089 0 00-1-1.528c-1.618-2.376-1.618-2.376-1.45-3.827.198-.376.198-.376.437-.656l.137-.192c.64-.458 1.518-.412 2.261-.312 1.422.25 2.792.721 4.164 1.16.328-.397.613-.808.896-1.238.804-1.18 1.81-1.994 3.224-2.328 1.687-.287 3.5-.175 4.938.79zm-5.995 1.791c-.363.424-.67.887-.976 1.352-.827 1.257-.827 1.257-1.548 1.44-.759.128-1.348-.064-2.063-.31-.46-.154-.928-.288-1.395-.424l-.287-.087a8.829 8.829 0 00-1.934-.33c.421 1.064 1.058 1.986 1.702 2.925l.142.208c.087.128.176.256.265.383.476.696.783 1.394 1.172 2.171h15.094l.875-1.75c.285-.445.572-.879.875-1.312.195-.286.388-.574.58-.861l.14-.205c.514-.722.514-.722.702-1.559-.894.042-1.689.266-2.536.54l-.743.235-.897.286c-.693.214-1.313.178-1.97-.131-.572-.508-.988-1.12-1.394-1.764-.514-.778-1.163-1.362-2.085-1.572-1.284-.24-2.713-.138-3.72.765zm-7.316 9.342c-.152.217-.215.345-.231.611.126.3.126.3.328.547.383.128.683.124 1.087.126a1571.358 1571.358 0 001.017.003l.56.002a772.88 772.88 0 002.473.006l2.975.005c1.145 0 2.29.004 3.435.008.885.003 1.77.005 2.654.005.529 0 1.058.002 1.586.004.497.003.995.003 1.492.002.182 0 .365 0 .547.002.25.002.498.002.747 0h.423c.429-.063.612-.18.91-.49.056-.342.074-.545-.119-.838-.32-.226-.596-.188-.985-.189l-.241-.001c-.267-.002-.535 0-.802 0l-.574-.001c-.52-.002-1.04-.001-1.56 0H28.32c-.913-.001-1.826 0-2.74.001a930.39 930.39 0 01-3.17 0c-.906-.002-1.812-.002-2.718-.001h-1.625c-.51-.002-1.019-.001-1.528 0h-.561c-.255 0-.51 0-.765.002h-.433c-.34.013-.34.013-.55.196zm-.875 6.002c-.479.74-1.103 1.392-1.68 2.054a29.686 29.686 0 00-4.348 6.774l-.1.211c-.995 2.115-1.636 4.337-1.76 6.68l-.013.226c-.085 2.792.888 5.528 2.53 7.758l.191.266c2.254 2.97 5.385 4.779 9.057 5.356.564.072 1.12.075 1.689.066l-.124-.209-.156-.283-.158-.277c-.166-.494-.123-.935.094-1.401.116-.197.24-.384.371-.571l.135-.2c.126-.188.255-.374.385-.56l.186-.268c.118-.167.24-.332.36-.497a4.337 4.337 0 00-.753-.41c-3.127-1.378-5.51-3.736-6.763-6.95-1.155-3.152-1.092-6.628.27-9.709 1.43-3.07 3.844-5.234 6.956-6.521 3.36-1.209 6.939-.903 10.151.56a12.57 12.57 0 016.088 7.007c.083.272.163.546.24.82l.105.352c.6 2.372.372 5.101-.46 7.385-.095.238-.095.238-.083.466l.23.022c2.205.21 4.31.587 6.441 1.181.579-2.054.532-4.392 0-6.453l-.064-.253c-.383-1.47-.932-2.857-1.576-4.231l-.112-.24c-1.244-2.6-3.046-4.916-4.92-7.088l-.21-.246-.555-.63-.196-.226c-.153-.174-.31-.345-.468-.512a9.978 9.978 0 01-.682-.835c-.795-.99-1.502-1.582-2.79-1.732a26.471 26.471 0 00-2.096-.057c-.34 0-.68-.005-1.02-.01a114.02 114.02 0 00-2.41-.007c-.73.005-1.46-.002-2.19-.022-5.704-.296-5.704-.296-9.792 3.214zm7.535 3.031l-.213.07c-1.68.565-3.027 1.53-4.272 2.774l-.245.245c-1.892 2.01-2.756 4.787-2.731 7.506.093 2.426 1.053 4.76 2.648 6.577l.204.251c1.334 1.603 3.188 2.567 5.155 3.14l.141-.148a8.493 8.493 0 011.39-1.165c-.38-.217-.763-.303-1.189-.403-2.23-.568-4.05-1.974-5.29-3.896-1.327-2.26-1.583-4.77-.958-7.294.662-2.205 2.153-4.152 4.16-5.307.392-.196.79-.361 1.2-.518l.212-.081c2.17-.793 4.73-.67 6.822.299 2.365 1.161 3.924 2.953 4.799 5.427.743 2.49.394 5.006-.818 7.264-.193.34-.193.34-.297.681 1.205.038 1.205.038 2.23-.468.18-.35.293-.682.395-1.063l.13-.432c.85-2.94.521-5.805-.882-8.502a9.942 9.942 0 00-1.107-1.566l-.229-.273c-1.643-1.898-4.132-3.322-6.662-3.555-1.577-.1-3.087-.064-4.593.437zm-2.201 5.476a7.445 7.445 0 00-1.628 3.384l-.075.383c-.18 2.01.312 3.949 1.607 5.523 1.346 1.56 3.069 2.49 5.15 2.651 1.973.045 3.748-.577 5.24-1.885l.204-.177c1.204-1.118 2.064-2.873 2.126-4.521.024-2.123-.412-3.884-1.837-5.526-1.465-1.479-3.236-2.268-5.305-2.286-2.183.021-3.968.89-5.483 2.454zm4.508 15.968c-.23.213-.23.213-.564.472-.498.446-.896.964-1.306 1.49l-.254.327c-.532.644-.532.644-.73 1.424.142.263.278.475.458.71l.15.202c2.884 3.814 7.073 6.088 11.772 6.788 4.807.642 9.754-.525 13.651-3.435 1.139-.892 2.164-1.862 3.042-3.014l.19-.242c.477-.61.477-.61.706-1.337-.146-.345-.146-.345-.404-.67l-.136-.186c-.502-.67-1.067-1.277-1.648-1.879l-.262-.283c-2.993-3.147-7.544-4.735-11.813-4.889-4.687-.097-9.38 1.277-12.852 4.522z"/>
    <path d="M39.888 39.956c.16.132.316.266.472.403l.248.218c1.322 1.234 2.214 3.023 2.293 4.846.052 2.32-.492 4.23-2.104 5.983a7.635 7.635 0 01-5.36 2.297c-2.146-.041-3.966-.777-5.539-2.248-1.538-1.602-2.19-3.489-2.168-5.677.066-2.137.95-3.96 2.491-5.442 2.726-2.329 6.78-2.53 9.667-.38zm-8.935 2.372c-1.066 1.21-1.432 2.655-1.357 4.233a5.827 5.827 0 001.945 3.867c1.388 1.025 2.88 1.571 4.628 1.354 1.16-.225 2.108-.684 2.987-1.47l.208-.18c1.092-1.013 1.638-2.392 1.704-3.87.022-1.698-.628-3.128-1.774-4.36-1.214-1.13-2.7-1.583-4.327-1.566-1.616.092-2.91.834-4.014 1.992z"/>
    <path d="M38.063 42.581c.953.805 1.554 1.846 1.666 3.1.03 1.127-.185 2.236-.927 3.118-.92.962-1.834 1.618-3.199 1.655-1.15.011-2.072-.193-3.01-.907l-.273-.185a4.342 4.342 0 01-1.39-2.903c-.021-1.68-.021-1.68.497-2.35.235-.18.368-.178.66-.168l.263.009c.27.02.528.06.79.128.114-.376.112-.541-.013-.923-.096-.39-.096-.39 0-.745.314-.406.622-.5 1.107-.629l.26-.075c1.288-.153 2.51.097 3.57.875zm-2.844.95l-.029.236c-.1.689-.213 1.247-.737 1.733-.517.355-1.02.495-1.64.547.059.848.285 1.429.922 2.003.592.501 1.166.562 1.92.546.672-.069 1.114-.342 1.567-.833.455-.585.691-1.155.658-1.9-.123-.855-.55-1.396-1.205-1.938-.479-.331-.872-.394-1.456-.394zM24.61 25.594c.273.15.273.15.437.437.034.368.025.726 0 1.094l.28.02c.585.139.981.435 1.354.903.145.35.178.56.116.936-.28.39-.441.528-.916.616-.39-.068-.477-.108-.766-.342-.381-.302-.678-.35-1.159-.32-.245.038-.245.038-.509.224-.179.26-.179.26-.15.602.076.32.076.32.299.44.284.107.519.123.822.134.962.078 1.49.425 2.111 1.151.49.711.452 1.474.377 2.308-.18.687-.625 1.14-1.203 1.531-.321.15-.321.15-.547.219l-.012.2c-.031.378-.064.707-.213 1.058-.333.257-.671.309-1.087.273-.381-.227-.516-.344-.657-.766-.004-.255-.004-.51 0-.765l-.287-.082c-.544-.202-1.085-.476-1.353-1.012-.074-.443-.075-.762.178-1.141.321-.212.53-.273.916-.28.28.136.28.136.547.327.453.322.755.39 1.312.328.278-.096.278-.096.438-.328.063-.387.063-.387 0-.765-.382-.255-.608-.263-1.06-.308-.882-.117-1.361-.363-1.983-.984-.448-.654-.682-1.302-.567-2.099.232-.892.651-1.506 1.443-1.981.198-.097.198-.097.416-.097l-.02-.403c0-.426.08-.677.349-1.019.351-.176.712-.16 1.093-.11z"/>
  </g>
  <defs>
    <clipPath id="keYSYfRB9M__a">
      <path fill="#fff" d="M0 0h56v56H0z"/>
    </clipPath>
  </defs>
</svg>
