<svg fill="none" xmlns="http://www.w3.org/2000/svg" viewBox="0 0 56 56">
  <g clip-path="url(#IW9_6zg_OBpma)" fill="#fff">
    <path d="M15.053-.047c.233-.001.466-.006.7-.012L16.2-.06l.406-.005c.347.066.347.066.613.318.172.295.172.295.165.691-.102.368-.139.474-.43.698-.23.043-.23.043-.493.048l-.292.008-.31.005c-1.558.052-3.003.181-4.156 1.36-.882 1.195-1.033 2.42-1.04 3.874l-.006.444c-.005.385-.009.77-.011 1.155l-.014 1.183c-.01.771-.016 1.542-.023 2.313h2.079l-.021-.663c.002-.791.088-1.223.615-1.832.399-.34.682-.485 1.207-.486l.297-.002h.67c.384-.002.768-.002 1.152-.002l.824-.002 2.008-.003h1.633c1.543-.003 3.086-.004 4.629-.004h.252a2059.746 2059.746 0 004.301-.005 1921 1921 0 014.158-.004c.778 0 1.556 0 2.334-.003.732-.002 1.463-.002 2.195 0 .269 0 .538 0 .806-.002.367-.002.733 0 1.1 0l.322-.002c.663.006 1.055.104 1.596.495.4.506.56.907.56 1.544v.27l-.001.293v.31a429.865 429.865 0 01-.002 1.72l-.003 1.854-.002 1.891-.005 3.711h2.078l-.009-.495a234.3 234.3 0 01-.021-1.817c-.003-.262-.007-.525-.012-.787-.006-.377-.01-.754-.012-1.13l-.008-.356c0-.81 0-.81.314-1.18.402-.192.636-.15 1.06-.032.225.173.311.295.438.547.01.169.013.338.012.507v.319l-.002.344v.352a593.569 593.569 0 01-.005 1.873l-.005 1.855h2.734c-.007-1.409-.015-2.818-.026-4.227-.005-.654-.009-1.309-.012-1.963-.003-.632-.007-1.264-.013-1.896a137.078 137.078 0 00-.011-1.736v-.299c-.012-.832-.159-1.675-.742-2.31-.575-.47-1.207-.691-1.93-.803l.002.191c.007.659.012 1.317.016 1.975.001.246.004.491.006.737.004.353.006.706.008 1.06l.005.332c0 .963 0 .963-.365 1.392-.339.17-.612.142-.985.11-.33-.24-.427-.37-.492-.776v-.403l-.002-.224v-.479c.002-.254 0-.508-.002-.762L45.33 9.68c0-.716-.001-1.431-.006-2.147V6.79c-.001-1.45-.175-2.878-1.25-3.95-1.096-.913-2.28-1.108-3.666-1.104l-.273-.001h-.9a1399.687 1399.687 0 01-2.04-.004c-.734 0-1.468-.002-2.201-.004l-.754-.002-.381-.001c-1.707-.005-3.414-.008-5.12-.01-1.154 0-2.306-.003-3.459-.007-.61-.003-1.219-.004-1.829-.003-.572 0-1.145-.001-1.718-.004h-.631c-.287 0-.573-.001-.86-.003l-.254.002c-.377-.005-.59-.031-.898-.257-.245-.35-.227-.587-.167-1.005.165-.239.165-.239.437-.437a6.07 6.07 0 01.922-.055l.284-.002c.315-.001.63 0 .945.002l.677-.002c.614-.001 1.227 0 1.84.002h1.927c1.08 0 2.16.001 3.238.004 1.247.003 2.493.003 3.74.002 1.2-.002 2.4 0 3.599 0h1.53c.602 0 1.204.001 1.805.004h.661c2.129-.005 2.129-.005 3.004.373l.32.129.248.124.25.122c.276.172.276.172.43.334.4.41.68.54 1.255.57.243.003.487.002.73 0 .257.003.513.008.769.013l.37.008c2.17.083 4.311 1.198 5.8 2.747a10.79 10.79 0 011.456 2.167l.104.196c.834 1.693.8 3.405.794 5.251l.002.879c.002.71.002 1.419 0 2.128a666.15 666.15 0 000 1.731v.753c.001 1.568 0 3.136-.002 4.703-.002 1.342-.002 2.684 0 4.026a2034.42 2034.42 0 01.002 5.188v1.976c.002.703.002 1.406 0 2.108-.002.358-.002.716 0 1.073.005 1.806-.046 3.422-.913 5.05l-.114.22a8.437 8.437 0 01-1.11 1.598l-.253.335c-1.422 1.553-3.55 2.629-5.665 2.74-.664.018-1.328.012-1.993.009l-.642-.001c-.56-.001-1.12-.003-1.679-.006l-1.718-.004c-1.12-.002-2.242-.006-3.363-.01v1.421l.505-.02c1.546-.041 2.669.005 3.911 1.011.875.841 1.278 1.873 1.306 3.07-.01 1.187-.456 2.132-1.25 3-.649.632-1.506 1.045-2.416 1.048l-.278.001h-.303l-.323.001-1.076.002-.77.002c-.844.003-1.688.004-2.533.005l-.871.001-3.627.005h-1.177c-1.262.001-2.524.004-3.785.008-1.297.003-2.593.005-3.89.005-.727 0-1.454.002-2.182.005-.684.002-1.37.003-2.054.001l-.752.002c-1.658.01-2.968.01-4.222-1.202-.877-.983-1.175-1.967-1.153-3.273.1-1.146.653-2.035 1.47-2.817 1.31-1.027 2.662-.916 4.252-.855v-1.422l-.313.009c-.384.01-.768.016-1.153.021l-.498.011c-.239.007-.478.01-.717.013l-.436.008c-.479-.077-.636-.23-.93-.609-.069-.328-.069-.328 0-.656.193-.29.193-.29.547-.547.449-.082.894-.072 1.35-.067.138 0 .276 0 .42-.002.384-.001.768 0 1.153.003.414.002.83 0 1.244 0 .719-.001 1.438 0 2.157.002 1.041.003 2.083.002 3.124 0a2321.693 2321.693 0 016.614.002l3.38.003h.306c1.685 0 3.37 0 5.053-.002 1.038 0 2.076 0 3.114.002.712.002 1.425.002 2.137.001.41 0 .82 0 1.231.002 2.605.013 4.88-.083 6.866-1.996l.241-.245c.105-.1.105-.1.21-.203 1.508-1.564 1.777-3.7 1.774-5.773v-1.437l.002-.794a1548.025 1548.025 0 00.002-3.496l.001-4.457v-.484l.003-3.888a3140.658 3140.658 0 00.003-6.245 781.367 781.367 0 00.002-2.882c.005-2.402-.043-4.651-1.56-6.653l-.242-.239c-.195-.199-.195-.199-.195-.417l-.192-.088a3.718 3.718 0 01-.676-.487c-1.382-1.087-2.983-1.47-4.71-1.394l.068.188c.287.822.385 1.57.37 2.437.117-.01.234-.018.355-.027 1.09.005 2.047.48 2.816 1.23 1.07 1.14 1.332 2.342 1.322 3.863l-.002.697-.002.37c-.002.651 0 1.301 0 1.951.002.827.002 1.654-.002 2.48-.004.67-.003 1.338 0 2.007 0 .254 0 .509-.003.764-.004.356-.002.712.002 1.068l-.007.318c.009.559.009.559.304 1.012.227.175.227.175.463.314.767.483 1.181 1.336 1.435 2.175.18.852.134 1.74.133 2.606l.001.59v1.234c0 .525.002 1.049.004 1.573.002.406.002.812.002 1.219l.001.579c.008 1.606-.09 3.101-1.28 4.314-.62.561-.62.561-.949.725-.056.29-.102.576-.143.869-.203 1.257-.65 2.198-1.607 3.069a4.925 4.925 0 01-.984.547l-.185.082c-.797.311-1.585.292-2.43.288l-.495.002c-.452.002-.903.001-1.355 0l-1.464.002c-.956.002-1.911.002-2.867.002h-3.34c-2.106.002-4.213.002-6.32 0-1.926 0-3.853 0-5.78.003-1.978.003-3.957.004-5.937.003-1.11 0-2.221 0-3.332.002-.945.002-1.89.002-2.836 0h-1.447c-.442.002-.884.001-1.326 0h-.478c-1.47.01-2.7-.304-3.799-1.324-.978-1.058-1.27-2.335-1.259-3.735v-.308A846.08 846.08 0 004.355 35c0-.607.003-1.214.005-1.82l.004-1.862c.003-1.215.006-2.43.011-3.645l-.207-.099c-.746-.389-1.166-1.215-1.434-1.98-.129-.455-.127-.9-.128-1.371l-.003-.285-.004-.935-.001-.323c-.003-.565-.004-1.13-.005-1.695-.001-.582-.005-1.164-.01-1.745l-.004-1.347c0-.214-.002-.428-.004-.643-.012-1.384-.018-2.637.932-3.748l.222-.267c.209-.219.209-.219.537-.437.05-.264.05-.264.044-.574l.007-.353.003-.372c.013-1.525.19-2.933 1.27-4.089.81-.756 1.745-1.294 2.88-1.298l.39.014-.021-.342c-.003-.735.128-1.623.458-2.283-1.96-.12-3.73.508-5.245 1.758-1.566 1.468-2.239 3.426-2.312 5.528a64.19 64.19 0 00-.005.877V13.1l-.002.795a1567.62 1567.62 0 00-.002 3.496l-.001 4.456v.485l-.003 3.888a3177.78 3177.78 0 00-.003 6.245 785.496 785.496 0 00-.002 2.882c-.005 2.402.043 4.651 1.56 6.653l.242.238c.195.2.195.2.195.418l.192.087c.258.139.453.298.676.487 1.575 1.238 3.368 1.448 5.314 1.434.214 0 .429.002.643.005l.38-.002c.446.088.609.265.889.614.068.328.068.328 0 .656-.287.361-.448.529-.906.614l-.406-.002h-.223c-.155 0-.31-.002-.465-.005a30.422 30.422 0 00-.695-.004c-2.5-.012-4.746-.832-6.586-2.546C1.836 43.271 1.3 42.47.84 41.583l-.104-.196c-.834-1.694-.8-3.406-.794-5.252 0-.292 0-.585-.002-.878-.002-.71-.001-1.419 0-2.128v-2.484c-.001-1.568 0-3.136.002-4.703.002-1.342.002-2.684 0-4.026a1986.392 1986.392 0 01-.002-5.189v-1.976a493.273 493.273 0 01.001-3.181c-.006-1.805.045-3.421.913-5.049l.114-.22a8.39 8.39 0 011.11-1.598l.147-.194c1.3-1.671 3.495-2.573 5.54-2.868.217-.007.434-.01.651-.008l.37-.004c.252-.001.504 0 .757.003.931-.015 1.373-.245 2.05-.866.304-.187.304-.187.554-.308l.25-.125c.878-.346 1.72-.377 2.655-.38zm-8.148 8.64c-.93.996-.81 2.16-.78 3.438h2.734V7.875c-.8 0-1.34.202-1.954.719zm7.532 2.235v1.203l.287.001c.896.005 1.793.01 2.689.02.46.004.92.007 1.382.009.445.001.89.005 1.336.01l.507.003c1.453.002 2.679.206 3.753 1.27.801.975 1.11 2.02 1.111 3.27l.002.26a238.407 238.407 0 01.004 1.138l.003 1.539c0 .527.003 1.053.006 1.58.002.408.003.815.003 1.223l.002.582c.012 1.646-.07 3.057-1.245 4.32-.905.868-1.909 1.188-3.147 1.204l-.223.003-.712.009-.442.006c-.543.008-1.087.014-1.63.02l-3.686.049V40.25h27.126v-2.516l-.596-.006-1.957-.025-1.186-.015a217.9 217.9 0 01-1.147-.015l-.645-.007c-1.469-.024-2.8-.239-3.92-1.266-.798-.898-1.083-1.856-1.081-3.028l-.002-.285c-.003-.31-.003-.62-.003-.93l-.002-.65a441.29 441.29 0 01-.002-1.36c0-.58-.003-1.159-.007-1.738a231.17 231.17 0 01-.003-1.342c0-.214 0-.427-.002-.64-.011-1.482.044-2.708 1.039-3.895.904-.914 2.049-1.318 3.318-1.336l.423-.007.443-.005.408-.006c.504-.008 1.007-.014 1.51-.02l3.411-.049V10.828H14.439zm-9.406 3.61c-.82 1.049-.781 2.04-.776 3.321v.424l.003 1.107.002 1.133.006 2.218.242-.155.322-.205.318-.202.91-.58c.098-.06.195-.123.295-.186l.614-.39c.463-.293.925-.588 1.377-.897l.208-.14c.177-.12.353-.243.53-.365.4-.2.646-.221 1.09-.162.288.17.288.17.56.41.103.09.205.18.311.271a86.365 86.365 0 01.511.467c.363.331.724.666 1.084 1 .216.202.432.402.651.6l.188.172c.234.171.47.264.742.361l.141-.116.2-.165.226-.185.499-.412 1.288-1.06c1.773-1.462 1.773-1.462 2.289-1.878.2-.165.396-.335.588-.509.104-.09.207-.181.313-.275l.274-.25c.4-.236.736-.286 1.182-.18.29.162.518.371.759.6.065.06.13.12.198.18.132.12.262.24.392.361.25.235.507.462.763.69l.231.21c.149.157.149.157.282.146.008-.527.014-1.055.018-1.582.001-.179.004-.358.007-.537.045-1.78.045-1.78-.82-3.295-.684-.592-1.46-.724-2.346-.726l-.37-.001h-.4l-.427-.001a443.291 443.291 0 00-1.875-.002l-2.52-.002c-.78 0-1.562 0-2.344-.002a903.737 903.737 0 00-3.22-.004h-1.34l-.4-.002c-1.024.004-1.978.088-2.775.794zm15.64 5.14c-.108.09-.108.09-.22.18l-1.584 1.297-.303.248-.576.47-.283.232-.296.242c-.27.221-.54.444-.809.667l-.247.205-.483.4c-.22.184-.443.364-.667.543l-.2.168c-.336.267-.526.373-.962.439-.43-.07-.599-.177-.923-.463-.103-.09-.205-.18-.311-.271-.437-.397-.869-.8-1.298-1.204a27.47 27.47 0 00-1.775-1.512c-.954.503-1.842 1.1-2.74 1.695a732.843 732.843 0 01-1.136.75c-.49.324-.985.637-1.483.945.033.656.324 1.07.766 1.531.628.49 1.144.67 1.939.674l.387.002a3992.33 3992.33 0 00.872.005l1.468.006.507.001c.702.003 1.405.005 2.108.006 1.005.002 2.01.006 3.015.012.708.004 1.416.006 2.124.007.422 0 .844.001 1.267.005.397.003.795.004 1.193.003.214 0 .428.002.642.005.935-.006 1.695-.163 2.405-.805.807-.837.88-1.914.897-3.02-.02-.545-.057-.95-.425-1.369a7.197 7.197 0 00-1.028-.757c-.299-.2-.549-.445-.808-.694-.33-.313-.6-.496-1.032-.643zm12.825 3.903l-.176.145c-.516.626-.682 1.24-.677 2.038l-.003.273c-.003.296-.003.59-.003.886l-.002.621c-.002.433-.002.866 0 1.3 0 .552-.003 1.105-.008 1.657-.004.427-.004.855-.003 1.282 0 .204-.001.407-.004.611-.028 1.58-.028 1.58.74 2.925.88.828 1.94.798 3.09.795l.434.002c.392.001.784.002 1.176.001l.984.001h2.323c.797 0 1.594.002 2.39.004.687.002 1.373.002 2.06.002.408 0 .817 0 1.226.002.456.001.912 0 1.369-.001l.406.003c1.026-.007 1.873-.125 2.643-.845.628-.7.727-1.422.73-2.334l.002-.25c.003-.272.004-.544.005-.817l.001-.283c.003-.495.004-.99.005-1.484.001-.51.005-1.018.01-1.527l.004-1.18c0-.187.001-.375.003-.562.012-1.11.02-2.138-.69-3.056l-.207-.168-.203-.173c-.856-.528-1.635-.537-2.618-.532l-.445-.002h-2.466c-.707 0-1.414 0-2.121.002-.816.001-1.631 0-2.447-.001a642.74 642.74 0 00-2.106-.001h-1.255c-.394-.001-.787 0-1.181.001l-.637-.001c-.873.006-1.658.07-2.349.666zM6.125 28.437c-.007 1.224-.013 2.448-.017 3.671a477.14 477.14 0 01-.008 1.705l-.006 1.647c0 .209-.002.418-.004.627-.002.293-.002.587-.002.88l-.004.26c.005.866.22 1.66.82 2.304.615.517 1.156.719 1.955.719V28.547l-2.734-.11zm4.484.11V40.25h2.079V28.547h-2.079zm32.703 9.187v2.516h2.079v-2.516h-2.078zm3.829 0v2.516c1.001-.111 1.46-.247 2.144-.945.413-.52.435-.873.59-1.57h-2.734zm-28 8.75v1.422h17.718v-1.422H19.141zm-5.34 4.18c-.374.563-.436 1.178-.348 1.836.231.759.736 1.252 1.405 1.652.604.251 1.253.223 1.895.222h.303l1.004.001.72.001a1592.97 1592.97 0 003.177.002l4.042.002h.44c1.178 0 2.356 0 3.533.002a2746.295 2746.295 0 005.668.004 643.978 643.978 0 002.619 0c.32.002.64.001.96 0l.28.002c.93-.005 1.753-.153 2.436-.84.503-.57.66-1.04.639-1.785-.076-.7-.476-1.332-1.011-1.779-.624-.326-1.127-.375-1.824-.37l-.317-.002c-.349-.002-.698 0-1.048 0l-.752-.002c-.68-.002-1.361-.002-2.042-.002h-1.705a1944.49 1944.49 0 00-4.253 0c-1.23 0-2.46 0-3.69-.003-1.264-.003-2.528-.004-3.792-.003-.71 0-1.419 0-2.128-.002-.667-.002-1.334-.001-2 0h-.735c-.334-.002-.668 0-1.002.001l-.293-.003c-.93.011-1.607.331-2.18 1.066z"/>
    <path d="M18.978 29.718l.241-.002a1005.426 1005.426 0 001.334-.005l1.15-.002c.49 0 .978-.003 1.468-.006.378-.003.756-.003 1.134-.003l.54-.003c1.109-.01 2.032.004 2.916.75.466.56.796 1.018.805 1.757l.005.297a1422.262 1422.262 0 01.008 1.344c.002.352.007.704.012 1.056l.002.674.006.317c-.002.792-.18 1.365-.693 1.974l-.207.176-.203.18c-.93.6-1.89.547-2.954.544l-.533.002h-1.114c-.473-.002-.946 0-1.419.004-.366.002-.733.002-1.1.001-.174 0-.348 0-.523.002-1.173.008-2.197-.035-3.112-.856-.66-.67-.713-1.421-.71-2.314l-.002-.328v-.686c.001-.348-.002-.696-.005-1.044v-.67l-.004-.312c.009-.833.214-1.404.77-2.029.7-.613 1.242-.812 2.188-.818zm.928 1.782c.467.373.936.732 1.422 1.08l.232.174.226.16.203.148c.221.105.221.105.483.002a7.61 7.61 0 00.762-.447l.264-.176.27-.182.278-.184c.34-.227.34-.227.673-.466V31.5h-4.813zm-2.078.875v3.719a22.164 22.164 0 002.15-1.33l.226-.155.201-.139c.174-.122.174-.122.267-.345a391.234 391.234 0 00-1.487-1.002l-.543-.365a26.884 26.884 0 00-.33-.222c-.245-.18-.245-.18-.484-.161zm8.155.383l-.357.24c-.125.083-.25.168-.374.252l-.377.253-.922.622c.338.352.665.648 1.075.911l.292.19.301.191.306.198c.407.315.407.315.87.479v-3.719c-.34 0-.535.194-.814.383zm-4.304 2.901l-.312.208-.326.22-.329.218c-.407.271-.407.271-.806.554v.11h4.813c-.308-.308-.529-.516-.88-.744l-.246-.16-.255-.163-.257-.168c-.69-.45-.69-.45-1.402-.075zm13.847-7.168l.386-.003.42.002.444-.002c.4-.002.802-.001 1.204 0h1.26c.706-.001 1.411 0 2.117.002.815.002 1.63.001 2.446-.001.7-.002 1.401-.002 2.102-.001h1.255c.393-.002.786-.001 1.179.001.213.001.426 0 .64-.002l.383.004h.334c.366.07.496.207.726.493.062.219.062.219.061.438l.008.218c-.108.343-.324.46-.616.657-.3.055-.3.055-.63.056l-.383.004-.416-.002c-.147 0-.293.002-.44.003-.398.002-.796.002-1.194.001l-.997.001c-.785.002-1.569.002-2.353 0-.809-.002-1.618 0-2.426.003-.695.003-1.39.004-2.085.003-.415 0-.83 0-1.244.002-.39.002-.78.001-1.17-.001-.211-.001-.422 0-.633.003-1.033-.012-1.033-.012-1.372-.327-.25-.388-.27-.606-.188-1.059.385-.386.642-.492 1.182-.493zm.171-3.021l.37-.002h.834c.387-.002.774-.002 1.161-.002h.97c.762-.002 1.525-.002 2.287-.002.787 0 1.573 0 2.36-.003l2.026-.002 1.21-.001h1.349l.405-.002.371.001h.323c.442.041.744.15 1.059.465.037.225.037.225.04.485l.01.26c-.05.24-.05.24-.233.416-.316.188-.514.193-.881.194l-.388.003-.424-.001-.447.002c-.405.002-.81.002-1.214.001l-1.014.001c-.797.002-1.594.002-2.391 0-.822-.001-1.645 0-2.467.003-.706.003-1.412.004-2.118.003-.422 0-.844 0-1.265.002-.397.002-.793.001-1.19-.001-.215 0-.43 0-.644.003l-.388-.004h-.337c-.37-.07-.5-.195-.727-.492-.055-.383-.055-.383 0-.766.382-.501.748-.56 1.353-.561zm-.077 6.015l.308-.002h.337l.356-.002a454.279 454.279 0 011.978-.005l1.7-.002c.727 0 1.453-.003 2.18-.007.558-.002 1.116-.002 1.675-.002l.803-.003c.375-.002.749-.002 1.123 0l.336-.004c.958.006.958.006 1.38.37.184.366.244.558.144.957-.143.246-.143.246-.471.465-.238.028-.238.028-.519.03l-.322.002h-.354l-.373.002-1.224.003-.85.002-1.78.002c-.686 0-1.372.002-2.058.005-.66.003-1.32.004-1.98.004l-.842.003c-.392.002-.784.002-1.177 0l-.353.004c-.782-.007-.782-.007-1.147-.255-.215-.351-.197-.602-.146-1.005.145-.277.227-.405.527-.502.255-.048.489-.06.748-.06zM22.04 3.015a2.82 2.82 0 011.257 1.579c.092.834.09 1.613-.438 2.297-.48.544-1.033.862-1.75.984-.716.027-1.388-.112-1.968-.547-.565-.588-.874-1.19-.91-2.01.02-.742.263-1.405.8-1.927a2.926 2.926 0 013.008-.376zm-1.792 1.702c-.178.296-.225.516-.232.861.193.265.355.398.649.54.353.01.508-.092.773-.321.116-.4.16-.643 0-1.032-.224-.205-.224-.205-.602-.22-.367.02-.367.02-.588.172zm7.369-1.709c.567.343.909.876 1.19 1.463.17.85.126 1.513-.302 2.281-.373.523-.832.809-1.414 1.061-.83.127-1.587.075-2.286-.42-.56-.499-.915-1.008-.987-1.758-.023-.819.078-1.491.643-2.115a2.951 2.951 0 013.156-.512zm-1.852 1.757c-.205.268-.205.268-.178.656.085.383.085.383.355.601.404.135.587.069.964-.116.237-.355.28-.463.219-.875-.166-.266-.166-.266-.438-.437-.4-.067-.58-.049-.922.17zm-9.404-1.822a3.338 3.338 0 011.358 1.541c.188.81.097 1.484-.301 2.208-.525.657-1.055 1.032-1.887 1.183-.841.032-1.453-.173-2.069-.74-.544-.57-.762-1.04-.78-1.824.035-.768.287-1.324.828-1.87.794-.69 1.85-.85 2.851-.498zm-1.452 1.671c-.275.195-.275.195-.472.527.01.388.087.522.356.806.284.204.284.204.588.171.36-.142.52-.286.683-.636.021-.349-.1-.508-.314-.779-.347-.22-.46-.257-.84-.089zm-6.132 9.878a3.25 3.25 0 011.34 1.51c.116.854.06 1.59-.451 2.302-.457.548-.988.813-1.682.946-.64.016-1.216-.07-1.75-.438-.608-.593-1.012-1.12-1.025-1.996.015-.683.172-1.26.627-1.784.809-.728 1.929-.982 2.941-.54zM7 16.516c-.082.273-.082.273 0 .547.228.273.228.273.547.437.356 0 .492-.058.752-.3.146-.243.146-.243.11-.527-.105-.29-.17-.422-.425-.595-.485-.087-.698.045-.984.438zm24.402-3.022l.266-.003c.29-.002.578 0 .868.003l.604-.001c.422 0 .844.001 1.265.004.54.004 1.08.003 1.621.001.416 0 .832 0 1.248.002h.597c.279-.001.557.001.836.004l.249-.002c.533.01.812.115 1.185.498.068.219.068.219.061.438v.218c-.092.328-.23.448-.499.657a5.663 5.663 0 01-.884.058l-.27.003a624.66 624.66 0 00-1.492.003l-1.282-.001c-.548-.002-1.096 0-1.643.004-.422.003-.843.002-1.265.002-.201 0-.403 0-.605.002-.283.002-.565 0-.848-.002-.083 0-.166.002-.252.004-.434-.008-.627-.058-.972-.33-.221-.29-.221-.29-.29-.618.17-.816.76-.956 1.502-.944zm.631 3.062h.45c.314 0 .627 0 .941.004.401.003.803.003 1.204 0 .31 0 .619 0 .928.002h.659l.406.005.356.002c.4.07.584.207.867.494.082.45.06.67-.183 1.058-.492.459-1.255.331-1.882.327l-.45.001c-.313.001-.627 0-.94-.003a75.465 75.465 0 00-1.204.002c-.31.002-.62.002-.929 0-.22 0-.439.001-.659.003-1.107-.014-1.107-.014-1.445-.334-.228-.36-.27-.527-.183-.945.483-.765 1.237-.624 2.064-.616z"/>
  </g>
  <defs>
    <clipPath id="IW9_6zg_OBpma">
      <path fill="#fff" d="M0 0h56v56H0z"/>
    </clipPath>
  </defs>
</svg>
